<?xml version="1.0" encoding="utf-8"?>
<!-- Generator: Adobe Illustrator 18.0.0, SVG Export Plug-In . SVG Version: 6.00 Build 0)  -->
<!DOCTYPE svg PUBLIC "-//W3C//DTD SVG 1.1//EN" "http://www.w3.org/Graphics/SVG/1.1/DTD/svg11.dtd">
<svg version="1.1" id="Layer_1" xmlns="http://www.w3.org/2000/svg" xmlns:xlink="http://www.w3.org/1999/xlink" x="0px" y="0px"
	 viewBox="0 0 120.4 37" enable-background="new 0 0 120.4 37" xml:space="preserve">
<polygon fill-rule="evenodd" clip-rule="evenodd" fill="#FFF450" points="117.6,12.2 116.9,13.2 115.7,14.5 114.7,15.6 114.4,15.6 
	112.9,17.4 112.2,18.4 111,19.7 110,20.8 108.1,22.6 107.2,24.1 105.7,25.9 105.3,26 103.8,27.8 102.8,29.3 101.3,31.1 99.8,32.9 
	99.5,33.4 97.9,35.4 97,36.2 96.5,37 95.8,37 95.1,36.5 93.9,35.4 93.6,34.7 93.4,34.1 93.4,32.5 94.5,30.8 95.8,29.2 97.3,27.4 
	97.8,26.7 99.3,24.9 100.2,24.1 101.7,22.3 102.3,21.3 103.8,19.5 104.1,19 103.8,19.1 103.4,19.1 103,19.2 102.6,19.2 102.3,19.3 
	101.9,19.3 101.4,19.7 101,19.7 100.5,20 99.9,20.3 99.6,20.4 99,20.7 98.5,21 98.1,21 97.6,21.4 97.2,21.4 96.7,21.7 96.3,21.8 
	95.8,22.1 95.4,22.1 94.9,22.4 94.5,22.5 94,22.8 93.6,22.9 93.2,22.9 92.7,23.2 92.3,23.3 91.9,23.3 91.4,23.6 91,23.7 90.7,23.8 
	77.3,27.4 77.1,27.6 76.7,27.7 76.4,27.8 76,27.8 75.6,27.9 75.2,27.9 74.9,28 74.5,28.1 74.1,28.1 73.7,28.2 73.4,28.2 73,28.3 
	72.6,28.3 72.3,28.4 71.9,28.5 71.5,28.5 71.1,28.6 70.8,28.6 70.4,28.7 70.2,28.5 56.4,29 56.1,29.1 55.7,29.2 55.3,29.2 
	54.9,29.3 54.4,29.1 54,29.2 53.4,29.1 53,29.1 52.4,29 52.1,29 51.7,29.1 51.1,29 50.7,29 50.2,28.9 49.8,28.9 49.2,28.8 
	48.8,28.9 48.2,28.7 47.9,28.8 47.3,28.7 46.7,28.5 46.3,28.6 45.8,28.5 45.4,28.5 44.8,28.4 44.2,28.2 43.8,28.3 43.5,28.4 
	43.3,28.2 38.8,27.3 38.4,27.3 38.1,27.4 37.5,27.3 36.9,27.1 36.3,27 35.7,26.9 35.1,26.7 34.6,26.6 34,26.5 33.4,26.3 32.8,26.2 
	32.2,26.1 31.6,25.9 31.1,25.8 30.8,25.6 27.5,24.5 27.1,24.6 26.6,24.5 25.8,24.1 25.2,24 24.4,23.7 23.8,23.6 23,23.2 22.2,22.9 
	21.6,22.8 21.4,22.6 18.8,21.4 18.4,21.5 17.7,21.1 16.9,20.8 16.1,20.5 15.1,20 14.3,19.6 13.8,19.3 11.2,18.1 10.5,17.8 9.4,17.3 
	8.4,16.7 7.4,16.2 7,15.8 4.8,14.6 4,14.3 2.6,13.4 1.3,12.2 0.4,11 0.1,10.4 0.1,10 0,9.5 0,9.1 0.1,8.4 0.3,8.2 1.8,7.9 2.6,8.2 
	4,9.1 5.2,9.9 5.6,10.2 7.8,11.5 8.4,11.6 9.4,12.1 10.4,12.6 11.4,13.1 12.2,13.5 12.4,13.7 14.7,14.9 15,14.8 15.8,15.2 
	16.6,15.5 17.6,16 18.2,16.1 19,16.5 19.8,16.8 20,17 23,18.1 23.6,18.2 24.2,18.3 24.9,18.7 25.5,18.8 26.1,18.9 26.9,19.3 
	27.5,19.4 28.1,19.5 28.9,19.9 29.2,19.8 29.5,20 33.2,21 33.5,20.9 34.1,21.1 34.7,21.2 35.3,21.3 35.9,21.5 36.5,21.6 37,21.7 
	37.6,21.9 38.2,22 38.6,21.9 39.2,22.1 39.7,22.2 40.3,22.3 40.7,22.3 41.3,22.4 41.7,22.4 41.9,22.6 47.4,23.3 47.8,23.2 
	48.2,23.2 48.8,23.3 49.1,23.2 49.7,23.4 50.1,23.3 50.7,23.4 51,23.4 51.4,23.3 52,23.5 52.4,23.4 52.7,23.3 53.3,23.5 53.7,23.4 
	54.3,23.6 54.7,23.5 55,23.4 55.6,23.6 56,23.5 56.4,23.5 56.7,23.4 57.3,23.5 57.7,23.5 58.1,23.4 58.4,23.4 59,23.5 59.4,23.4 
	59.8,23.4 60.1,23.3 60.7,23.5 61.1,23.4 61.5,23.3 61.8,23.3 62.2,23.2 62.6,23.2 63.2,23.3 63.5,23.2 63.9,23.2 64.3,23.1 
	64.6,23.1 65,23 65.4,23 65.8,22.9 66.3,23 66.7,23 67.1,22.9 67.5,22.9 67.8,22.8 68.2,22.7 68.6,22.7 69,22.6 69.3,22.6 
	69.7,22.5 70.1,22.5 70.4,22.4 70.8,22.3 71.2,22.3 71.6,22.2 71.9,22.2 72.3,22.1 72.7,22.1 73,22 73.4,21.9 73.8,21.9 74.2,21.8 
	74.5,21.8 74.9,21.7 75.3,21.7 75.7,21.6 76,21.5 76.4,21.5 76.8,21.4 77.3,21.1 77.7,21.1 78,21 78.4,21 78.8,20.9 79.2,20.8 
	79.5,20.8 80.1,20.5 80.4,20.4 80.8,20.4 81.2,20.3 81.6,20.2 81.9,20.2 82.5,19.9 82.8,19.8 83.2,19.8 83.6,19.7 84,19.7 
	84.5,19.3 84.9,19.3 85.2,19.2 85.8,18.9 86.1,18.9 86.5,18.8 86.9,18.8 87.4,18.4 87.8,18.4 88.2,18.3 88.7,18 89.1,18 89.6,17.7 
	90,17.6 90.3,17.5 90.9,17.2 91.2,17.2 91.8,16.9 92.2,16.8 92.7,16.5 93.1,16.5 93.6,16.1 94,16.1 94.3,16 99.6,13.7 99.7,13.4 
	100.1,13.4 100.6,13 101.2,12.7 101.5,12.7 102.1,12.4 102.6,12.1 103.1,11.8 103.7,11.5 104,11.4 104.6,11.1 105.1,10.8 
	105.6,10.5 106.2,10.2 106.7,9.9 107.2,9.6 107.6,9.5 108.9,8.7 105.2,8.1 104.8,8.2 104.2,8 103.6,7.9 103.3,7.9 102.7,7.8 
	102.1,7.7 101.5,7.5 100.9,7.4 100.6,7.5 100,7.3 99.4,7.2 98.8,7.1 98.2,6.9 97.6,6.8 97.3,6.8 96.7,6.7 96.3,6.8 96.1,6.6 92,5.6 
	91.6,5.7 91.3,5.8 90.7,5.6 90.1,5.5 89.5,5.4 87.8,3.8 87.8,3.4 87,1.9 87,1.5 86.9,1.1 87.6,0.1 88,0 88.5,0.1 88.9,0.1 89.5,0.2 
	90.1,0.3 90.7,0.5 91.3,0.6 91.6,0.6 92.2,0.7 92.8,0.8 93.4,1 93.7,0.9 94,1.1 98.4,2 98.8,1.9 99.4,2 99.7,2 100.3,2.1 100.9,2.3 
	101.5,2.4 101.9,2.3 102.4,2.5 103,2.6 103.6,2.7 104.2,2.9 104.6,2.8 105.2,2.9 105.7,3.1 106.3,3.2 106.9,3.3 107.3,3.3 
	107.5,3.5 111.6,4.4 111.9,4.4 112.5,4.5 113.1,4.6 113.5,4.6 114.1,4.7 114.6,4.8 115,4.8 115.6,4.9 116,4.9 116.3,4.8 116.7,4.7 
	117.1,4.7 117.5,4.6 118,4.8 119.3,5.9 120.3,7.6 120.3,8 120.4,8.4 120.4,8.9 119.4,10.4 "/>
</svg>
