<?xml version="1.0" encoding="utf-8"?>
<!-- Generator: Adobe Illustrator 18.0.0, SVG Export Plug-In . SVG Version: 6.00 Build 0)  -->
<!DOCTYPE svg PUBLIC "-//W3C//DTD SVG 1.1 Basic//EN" "http://www.w3.org/Graphics/SVG/1.1/DTD/svg11-basic.dtd">
<svg version="1.1" baseProfile="basic" id="Layer_1"
	 xmlns="http://www.w3.org/2000/svg" xmlns:xlink="http://www.w3.org/1999/xlink" x="0px" y="0px" viewBox="0 0 142.5 141.9"
	 xml:space="preserve">
<g>
	<path fill-rule="evenodd" clip-rule="evenodd" fill="#EC4E1B" d="M71.2,0c39.3,0,71.2,31.8,71.2,70.9s-31.9,70.9-71.2,70.9
		S0,110.1,0,70.9S31.9,0,71.2,0"/>
	<g>
		<path fill="#FFFFFF" d="M83.9,78.5c1.4,0.1,2.4,1.4,2.3,2.9c0,1.5-1.2,2.5-2.5,2.3c-1.3-0.2-2.3-1.5-2.3-2.9
			C81.4,79.5,82.5,78.4,83.9,78.5 M66.9,89.8c-0.1,0-0.2-0.1-0.2-0.3c0-0.1,0.1-0.2,0.2-0.2c3.7,0.6,7.5,1.2,11.5,1.8
			c4.2,0.7,8.5,1.3,13.1,2.1c1.5-0.7,2.8-1.5,3.8-2.2c0.2-0.2,0.4-0.4,0.4-0.7c0-0.3-0.1-0.6-0.4-0.8c-1.2-1.1-2.4-2.2-3.6-3.3
			c1.5-0.7,3.1-1.4,4.7-2.1c0.2-0.1,0.4-0.3,0.5-0.6c0.1-0.3,0-0.6-0.1-0.8c-0.3-0.5-0.6-1-1-1.5c-2-2.8-5.1-6.6-9.6-9.7
			c-4.2-3-9.6-5.3-16-5.5c-5.6-0.2-10,1.2-13.4,3.2c-2.7-0.1-5.4-0.2-8-0.3c0,0-0.1,0-0.1,0.1c0,0.1,0,0.1,0.1,0.1
			c2.2,0.2,4.6,0.5,6.9,0.7l0,0c3.2,0.2,6.4,0.3,9.9,0.5c3.5,0.2,7.2,0.3,11.1,0.5c0.3,0,0.5,0.3,0.5,0.7c0,0.4-0.3,0.6-0.6,0.6
			c0,0,0,0,0,0c-4-0.4-7.7-0.7-11.4-1c-3.5-0.3-6.8-0.6-10-0.9c-2.3,1.6-4.1,3.5-5.3,5.1c-0.7-2.6-2.6-8-7.6-9.4
			c-0.2,0-0.3,0-0.4,0.1c-0.1,0.1-0.2,0.3-0.2,0.6c0,0,0,0,0,0.1c0,0.1,0,0.2,0,0.3c0.4,1.6,0.7,3.2,1,4.7c-2.9-0.1-3.4,0-6.2-0.2
			c0,0-0.1,0-0.1,0.1c0,0.1,0,0.1,0.1,0.1c2.8,0.4,3.3,0.5,6.3,1c0.2,1.5,0.3,2.8,0.3,4.1c-2.7-0.3-0.6,0-3.1-0.3
			c-2.5-0.3-4.8-0.4-7.1-0.6c0,0-0.1,0-0.1,0.1c0,0.1,0,0.1,0.1,0.1c3.4,0.5,7,1,10.8,1.6c4,0.4,3.4,0.4,7.9,0.9
			c4.7,0.5,9.8,1.1,15.1,1.7c0.3,0,0.5,0.3,0.5,0.6c0,0.3-0.2,0.6-0.5,0.5l0,0c-4.4-0.6-8.6-1.2-12.6-1.8c-3.8-0.5-7.5-1.1-10.9-1.5
			c0,2.7-0.3,5-0.5,6.6c-0.2,1.6-0.5,2.5-0.5,2.5c-0.1,0.2,0,0.5,0.1,0.7c0.1,0.2,0.3,0.4,0.5,0.4c3.8-0.2,6.1-2.9,7-5.7
			c1.6,2.1,4.1,5.2,7.6,7.9c-3.2-0.5-6.3-0.9-9.3-1.3c0,0-0.1,0-0.1,0.1c0,0.1,0,0.1,0.1,0.1C51.8,90,55.7,91,59.9,92
			c2.6,1.6,5.6,3,9.2,3.7c0,0,0,0,0,0c8.4,1.8,15.2,0.5,20.2-1.5C81.2,92.6,73.7,91.2,66.9,89.8z M94,67.9c1.1,1.2,1,3-0.2,4.1
			c-1.1,1.1-2.8,1-3.8-0.2c-1-1.2-0.9-2.9,0.1-4C91.2,66.7,93,66.8,94,67.9z M100.1,63.9c0.9,0.9,0.8,2.4-0.1,3.2
			c-0.9,0.9-2.4,0.9-3.2,0C96,66.3,96,64.8,96.9,64C97.8,63,99.3,63,100.1,63.9z M97.4,75.1c0.5,0.6,0.5,1.5-0.1,2
			c-0.6,0.5-1.5,0.5-2-0.1c-0.5-0.6-0.5-1.5,0.1-2C96,74.4,96.8,74.5,97.4,75.1z"/>
		
			<polygon fill="none" stroke="#FFFFFF" stroke-width="5.4339" stroke-linecap="round" stroke-linejoin="round" stroke-miterlimit="2.6131" points="
			108.9,32.2 102.7,122 116.3,99.2 		"/>
		
			<polygon fill="none" stroke="#FFFFFF" stroke-width="5.4339" stroke-linecap="round" stroke-linejoin="round" stroke-miterlimit="2.6131" points="
			100.2,48.2 26.1,36.2 33.7,19.9 108.9,31.9 		"/>
		
			<polyline fill="none" stroke="#FFFFFF" stroke-width="5.4339" stroke-linecap="round" stroke-linejoin="round" stroke-miterlimit="2.6131" points="
			102.7,122 29.3,108.8 34,38 		"/>
	</g>
</g>
</svg>
