<?xml version="1.0" encoding="utf-8"?>
<!-- Generator: Adobe Illustrator 18.0.0, SVG Export Plug-In . SVG Version: 6.00 Build 0)  -->
<!DOCTYPE svg PUBLIC "-//W3C//DTD SVG 1.1//EN" "http://www.w3.org/Graphics/SVG/1.1/DTD/svg11.dtd">
<svg version="1.1" id="Layer_1" xmlns="http://www.w3.org/2000/svg" xmlns:xlink="http://www.w3.org/1999/xlink" x="0px" y="0px"
	 viewBox="0 0 288 417" enable-background="new 0 0 288 417" xml:space="preserve">
<path d="M140.1,352.4V330h-37.7c0.5-2.7,1.5-5.8,3.3-9.5c1.7-3.6,4.1-7.4,7.1-11.3l11.3-14.8c2.8-3.6,5.2-7.1,7.2-10.5
	c2-3.4,3.5-6.9,4.8-10.5c1.2-3.6,2.1-7.4,2.7-11.3c0.5-4,0.9-8.2,0.9-12.7c0-12.4-2.5-21.9-7.3-28.6c-4.9-6.7-12.4-10-22.6-10
	c-10.7,0-18.6,3.5-23.6,10.6c-5,7-7.5,17.2-7.5,30.4v5.4h19.4c0-3.7,0.1-7.3,0.3-10.6c0.3-3.3,0.7-6.3,1.5-8.8
	c0.8-2.6,1.9-4.5,3.4-6c1.5-1.5,3.5-2.2,6-2.2c6.6,0,9.9,5.9,9.9,17.6c0,3.6-0.1,6.8-0.3,9.6c-0.3,2.8-0.7,5.4-1.5,7.8
	c-0.7,2.4-1.8,4.8-3.2,7.2c-1.3,2.4-3.2,5-5.4,7.8l-8.1,10.8c-3.7,4.8-6.9,9.6-9.7,14.3c-2.8,4.7-5.1,9.6-6.9,14.5
	c-1.8,4.9-3.2,10.1-4.1,15.6c-0.9,5.4-1.3,11.3-1.3,17.6H140.1z M203.7,236v-22.4h-52.1l-3.7,77h18.2c0.4-4,1.3-7.2,2.9-9.5
	c1.5-2.3,3.8-3.5,6.7-3.5c2.3,0,4.1,0.4,5.6,1.4c1.5,1,2.7,2.6,3.6,4.8c0.9,2.2,1.5,5.3,1.9,9.2c0.4,3.8,0.5,8.8,0.5,14.6
	c0,9.2-0.9,16.1-2.7,20.7c-1.8,4.6-4.9,6.9-9.1,6.9c-2.1,0-3.9-0.8-5.2-2.3c-1.3-1.5-2.3-3.5-3-5.8c-0.7-2.3-1.1-4.9-1.3-7.5
	c-0.2-2.7-0.3-5.2-0.3-7.6h-19.4v3.8c0,4,0.3,8.3,1.1,12.9s2.1,8.9,4.1,12.8c2.1,4,5.1,7.1,8.9,9.5c3.9,2.4,9,3.6,15.3,3.6
	c6.4,0,11.7-1.2,15.8-3.5c4.1-2.3,7.4-5.8,9.8-10.4c2.4-4.6,4.1-10.1,5-16.5c0.9-6.4,1.4-13.6,1.4-21.4c0-5.6-0.4-11.1-1.1-16.5
	s-2.1-10.2-3.9-14.5c-1.8-4.3-4.3-7.7-7.5-10.3c-3.1-2.6-7.1-3.9-11.9-3.9c-4.3,0-8,0.8-11,2.5c-3,1.7-5.5,4.4-7.3,8.1h-0.3
	l2.1-32.2L203.7,236z"/>
<path d="M204.7,198.1c-0.1-0.2-0.1-0.4-0.2-0.6v-0.1c0-0.2,0-0.4,0.1-0.6l0.1-0.2l0.2-0.4l0.1-0.1c5.3-6,10.6-12,16.1-18
	c-6.7-4.8-14-9-21.5-12.4c1.8,6.8,2.9,13.6,3.4,20.3c0.1,0.8-0.5,1.5-1.3,1.7c-7.3,2-14.2,4.6-20.5,7.9c11.6,4.8,22,11.8,30.8,20.7
	C210.2,210.3,207.8,204.1,204.7,198.1z M209.3,201.4c2.9,5.1,4.8,9.8,6.1,15.5l4.9-5.3C216.2,207.7,212.9,204.5,209.3,201.4z
	 M281,239.1c-8.3-26.7-25.5-50.9-48.4-68.3c-8.1,8.5-16.1,17.3-23.8,26.2c17.4,12.7,30.5,30.6,37.1,50.4c6.8,20.5,6.7,43-0.3,63.4
	c-6.9,20.3-20.8,38.6-39.1,51.2c-18,12.6-40.3,19.5-62.6,19.5h-0.3h-0.3c-22.4,0-44.6-6.9-62.6-19.5c-18.2-12.6-32.1-30.8-39.1-51.2
	c-7-20.4-7.1-42.9-0.3-63.4c6.5-19.8,19.7-37.7,37.1-50.4c-7.7-8.8-15.7-17.6-23.8-26.2C31.5,188.3,14.4,212.4,6,239.1
	c-8.5,27.3-8,57.1,1.6,84C17.2,350,35.8,374,60,390.6c12.2,8.3,25.5,14.8,39.7,19.1c14.1,4.4,28.9,6.5,43.7,6.5h0.2
	c14.9,0,29.7-2.2,43.7-6.5c14.2-4.4,27.5-10.8,39.7-19.1c24.2-16.6,42.8-40.5,52.4-67.4C289,296.3,289.6,266.4,281,239.1z
	 M84.2,186.1c0.5-6.7,1.7-13.6,3.4-20.3c-7.5,3.5-14.8,7.6-21.5,12.4c5.5,6,10.9,12,16.1,18l0.1,0.1l0.2,0.4l0.1,0.2
	c0.1,0.2,0.1,0.4,0.1,0.6v0.1c0,0.2-0.1,0.4-0.2,0.6c-3.1,5.9-5.5,12.2-7.2,18.4c8.7-8.8,19.2-15.9,30.8-20.7
	c-6.3-3.3-13.2-6-20.5-7.9C84.6,187.7,84.1,187,84.2,186.1z M78.3,200.7c-2.9,5.1-4.8,9.8-6.1,15.5l-4.9-5.3
	C71.6,207,74.8,203.8,78.3,200.7z"/>
<path d="M196.7,158.8c-1.1,2-3.6,2.8-5.7,1.7c-2.1-1-2.9-3.5-1.8-5.4c1.1-2,3.6-2.8,5.7-1.7C197,154.3,197.7,156.8,196.7,158.8z"/>
<path d="M242.5,135.9c-4.8,8.8-16.2,12.2-25.3,7.6c-9.2-4.6-12.8-15.5-7.9-24.3c4.8-8.8,16.2-12.2,25.3-7.6
	C243.7,116.3,247.3,127.1,242.5,135.9z"/>
<path d="M205.3,144.3c-2,3.6-6.6,5-10.4,3.1c-3.8-1.9-5.2-6.3-3.3-10c2-3.6,6.6-5,10.4-3.1C205.7,136.2,207.2,140.6,205.3,144.3z"/>
<path d="M205.5,109.9c-6.1,11.3-20.6,15.5-32.3,9.7c-11.7-5.9-16.2-19.8-10.1-31c6.1-11.3,20.6-15.5,32.3-9.7
	C207.1,84.8,211.6,98.7,205.5,109.9z"/>
<path d="M263,92.7c-7.3,13.2-24.4,18.4-38.2,11.5c-13.8-7-19.2-23.4-12-36.6c7.3-13.2,24.4-18.4,38.2-11.5S270.3,79.4,263,92.7z"/>
<path d="M217.6,49.3c-8.9,16.2-29.8,22.5-46.7,14c-17-8.5-23.4-28.5-14.6-44.7c8.9-16.3,29.8-22.5,46.8-14
	C220,13.1,226.5,33.1,217.6,49.3z"/>
<path d="M192,166c-0.5-0.6-0.9-1.1-1.5-1.7c-5.9-6.5-18.9-17.2-40.5-16.6c-20,0.5-32.7,10.4-39.1,17.3c-1.7-4.1-6.5-12.5-18.5-14.1
	c-0.4-0.1-0.8,0.1-1.1,0.3c-0.3,0.3-0.5,0.6-0.5,1v0.1c0,0.1,0.1,0.3,0.1,0.4c7.8,17.7,2.3,34.2,2.3,34.4c-0.1,0.4-0.1,0.9,0.3,1.2
	c0.3,0.3,0.8,0.5,1.3,0.4c9.2-1.7,14.2-7.1,16-12.1c6.8,5.2,20,14.8,39.8,14.3c21.4-0.6,34.3-9,40.1-13.9c0.3-0.3,0.5-0.6,0.5-1
	c0-0.4-0.3-0.8-0.6-1l-5.2-3.5l6.2-3.6c0.3-0.2,0.5-0.5,0.6-0.8C192.3,166.6,192.2,166.3,192,166z M176.4,169.3
	c-1.6,1.5-4.1,1.5-5.7,0.1c-1.6-1.5-1.6-4-0.1-5.5c1.5-1.5,4.1-1.5,5.7-0.1C178,165.3,178,167.8,176.4,169.3z"/>
<path d="M208.7,227.3h10.5v2.9h-3.5V248h-3.4v-17.7h-3.5V227.3z M224.7,248h-3.4v-20.7h3.4v8.9h3.9v-8.9h3.5V248h-3.5v-8.9h-3.9V248
	z"/>
<path fill="#FFFFFF" stroke="#FFFFFF" stroke-width="7" stroke-linejoin="round" stroke-miterlimit="10" d="M125.1,272.7l5-1.4
	l1.9-0.5l-0.9-1.7l-2.3-4.7l-0.8-1.6l-1.6,0.9l-8.2,4.5l-1.3,0.7l0.6,1.3l1.3,2.8l0.2,0.4c-3.7,1.3-6.6,4.2-7.9,7.7v-13.9v-1.9h-2
	h-0.6h-7.4h-2.1h-2v1.9v4.7v1.9h2h0.1v6.5c-2-4.5-6.7-7.7-12.2-7.7c-5.7,0-10.7,3.6-12.4,8.5c-0.2-2.2-0.9-4.1-2.3-5.6
	c-1.6-1.9-4-2.8-7.1-2.8c-1.7,0-3.2,0.3-4.5,1v-6.5v-1.9h-2h-0.5H51h-2.2h-2v1.9v4.7v1.9h2H49v14.8h-0.2h-2v1.9v4.7v1.9h2H51h7.7
	h2.2h2h1.9h7.7h1.7h2v-1.9v-2.7c2.4,3.1,6.3,5.2,10.6,5.2c4,0,7.6-1.7,10-4.4v1.9v1.9h2h2.1h7.9h2.1h2v-1.9v-2.3
	c2.4,2.9,6.1,4.8,10.3,4.8c7.3,0,13.2-5.6,13.2-12.6C136.7,278.7,131.6,273.4,125.1,272.7z M231.5,272.7l5-1.4l1.9-0.5l-0.9-1.7
	l-2.3-4.7l-0.8-1.6l-1.6,0.9l-8.2,4.5l-1.3,0.7l0.6,1.3l1.3,2.8l0.2,0.4c-3.7,1.3-6.6,4.2-7.9,7.7v-13.9v-1.9h-2h-0.6h-7.4h-2.1h-2
	v1.9v4.7v1.9h2h0.1v6.5c-2-4.5-6.7-7.7-12.2-7.7c-5.6,0-10.4,3.3-12.2,8.1c-0.1-0.6-0.2-1.2-0.3-1.7c-0.3-1.2-0.9-2.3-1.7-3.2
	c-0.8-1-1.8-1.7-3-2.2c-1.2-0.5-2.6-0.8-4.1-0.8c-1.7,0-3.2,0.3-4.6,0.9c-0.8,0.3-1.5,0.8-2.2,1.4c-0.4-0.4-0.9-0.8-1.5-1.1
	c-1.3-0.8-2.9-1.2-4.7-1.2c-1.8,0-3.4,0.4-4.7,1.1v-0.4h-13.6v0.4v1.5v4.7v1.9h2h0.1v6.8h-0.1h-2v1.9v4.7v1.9h2h2.2h7.7h2.3h2h1.3
	h0.8h6.9h1.8h2h1.7h7.7h2.2h2v-1.9v-1.9c2.4,2.7,5.9,4.4,10,4.4c4,0,7.6-1.7,10-4.4v1.9v1.9h2h2.1h7.9h2.1h2v-1.9V293
	c2.4,2.9,6.1,4.8,10.3,4.8c7.3,0,13.2-5.6,13.2-12.6C243,278.7,238,273.4,231.5,272.7z"/>
<path d="M127.3,265l2.3,4.7l-9.2,2.6l-1.3-2.8L127.3,265z M111.2,295.3h-2.1h-7.9H99v-4.7h2.1v-18.7H99v-4.7h2.1h7.4h0.6v23.4h2.1
	L111.2,295.3L111.2,295.3z M74.4,295.3h-1.7h-7.8v-4.7v-6.5c0-1-0.2-1.9-0.7-2.5c-0.5-0.6-1.2-1-2.2-1c-1,0-1.7,0.4-2.3,1.1
	c-0.5,0.7-0.9,1.7-0.9,2.8v6.1h2.2v4.7h-2.2H51h-2.2v-4.7H51v-18.7h-2.2v-4.7H51h7.3h0.5v10.4h0.1c0.8-0.9,1.7-1.5,2.7-2.1
	c1-0.5,2.2-0.8,3.7-0.8c2.4,0,4.3,0.7,5.5,2.1c1.2,1.4,1.9,3.3,1.9,5.6v8.3h1.7L74.4,295.3z M125.1,272.7l5-1.4l1.9-0.5l-0.9-1.7
	l-2.3-4.7l-0.8-1.6l-1.6,0.9l-8.2,4.5l-1.3,0.7l0.6,1.3l1.3,2.8l0.2,0.4c-3.7,1.3-6.6,4.2-7.9,7.7v-13.9v-1.9h-2h-0.6h-7.4h-2.1h-2
	v1.9v4.7v1.9h2h0.1v6.5c-2-4.5-6.7-7.7-12.2-7.7c-5.7,0-10.7,3.6-12.4,8.5c-0.2-2.2-0.9-4.1-2.3-5.6c-1.6-1.9-4-2.8-7.1-2.8
	c-1.7,0-3.2,0.3-4.5,1v-6.5v-1.9h-2h-0.5H51h-2.2h-2v1.9v4.7v1.9h2H49v14.8h-0.2h-2v1.9v4.7v1.9h2H51h7.7h2.2h2h1.9h7.7h1.7h2v-1.9
	v-2.7c2.4,3.1,6.3,5.2,10.6,5.2c4,0,7.6-1.7,10-4.4v1.9v1.9h2h2.1h7.9h2.1h2v-1.9v-2.3c2.4,2.9,6.1,4.8,10.3,4.8
	c7.3,0,13.2-5.6,13.2-12.6C136.7,278.7,131.6,273.4,125.1,272.7z"/>
<path d="M233.7,265l2.3,4.7l-9.2,2.6l-1.3-2.8L233.7,265z M217.6,295.3h-2.1h-7.9h-2.1v-4.7h2.1v-18.7h-2.1v-4.7h2.1h7.4h0.6v23.4
	h2.1L217.6,295.3L217.6,295.3z M181.4,295.2h-2.2h-7.7v-4.7V284c0-1-0.2-1.9-0.6-2.4c-0.4-0.6-1.1-0.9-2.1-0.9
	c-0.9,0-1.7,0.4-2.2,1.1c-0.5,0.7-0.7,1.6-0.7,2.8v6.1h1.8v4.7h-1.8h-6.9h-0.8v-11.3c0-1-0.2-1.9-0.6-2.4c-0.4-0.6-1.1-0.9-2.1-0.9
	c-0.9,0-1.7,0.4-2.2,1.1c-0.5,0.7-0.7,1.6-0.7,2.8v6.1h2.3v4.7h-2.3h-7.7h-2.2v-4.7h2.2v-10.7h-2.2v-4.7h9.6h0.1v3h0.1
	c0.7-1.2,1.6-2,2.7-2.7c1.1-0.6,2.4-0.9,3.9-0.9c1.4,0,2.6,0.3,3.6,0.9c1,0.6,1.8,1.5,2.3,2.6h0.1c0.9-1.3,1.9-2.2,3.1-2.8
	c1.1-0.5,2.4-0.8,3.8-0.8c1.3,0,2.4,0.2,3.3,0.6c0.9,0.4,1.7,1,2.3,1.7s1,1.6,1.3,2.6c0.3,1,0.4,2,0.4,3.2v7.9h2.2V295.2z
	 M231.5,272.7l5-1.4l1.9-0.5l-0.9-1.7l-2.3-4.7l-0.8-1.6l-1.6,0.9l-8.2,4.5l-1.3,0.7l0.6,1.3l1.3,2.8l0.2,0.4
	c-3.7,1.3-6.6,4.2-7.9,7.7v-13.9v-1.9h-2h-0.6h-7.4h-2.1h-2v1.9v4.7v1.9h2h0.1v6.5c-2-4.5-6.7-7.7-12.2-7.7
	c-5.6,0-10.4,3.3-12.2,8.1c-0.1-0.6-0.2-1.2-0.3-1.7c-0.3-1.2-0.9-2.3-1.7-3.2c-0.8-1-1.8-1.7-3-2.2c-1.2-0.5-2.6-0.8-4.1-0.8
	c-1.7,0-3.2,0.3-4.6,0.9c-0.8,0.3-1.5,0.8-2.2,1.4c-0.4-0.4-0.9-0.8-1.5-1.1c-1.3-0.8-2.9-1.2-4.7-1.2c-1.8,0-3.4,0.4-4.7,1.1v-0.4
	h-13.6v0.4v1.5v4.7v1.9h2h0.1v6.8h-0.1h-2v1.9v4.7v1.9h2h2.2h7.7h2.3h2h1.3h0.8h6.9h1.8h2h1.7h7.7h2.2h2v-1.9v-1.9
	c2.4,2.7,5.9,4.4,10,4.4c4,0,7.6-1.7,10-4.4v1.9v1.9h2h2.1h7.9h2.1h2v-1.9V293c2.4,2.9,6.1,4.8,10.3,4.8c7.3,0,13.2-5.6,13.2-12.6
	C243,278.7,238,273.4,231.5,272.7z"/>
<path fill="#FFFFFF" d="M179.2,290.6v-7.9c0-1.2-0.1-2.2-0.4-3.2c-0.3-1-0.7-1.9-1.3-2.6c-0.6-0.7-1.3-1.3-2.3-1.7
	c-0.9-0.4-2.1-0.6-3.3-0.6c-1.3,0-2.6,0.3-3.8,0.8c-1.1,0.5-2.2,1.4-3.1,2.8h-0.1c-0.5-1.1-1.3-2-2.3-2.6c-1-0.6-2.2-0.9-3.6-0.9
	c-1.6,0-2.9,0.3-3.9,0.9c-1.1,0.6-1.9,1.5-2.7,2.7h-0.1v-3h-9.6v4.7h2.2v10.7h-2.2v4.7h2.2h7.7h2.3v-4.7h-2.3v-6.1
	c0-1.1,0.3-2,0.7-2.8c0.5-0.7,1.2-1.1,2.2-1.1s1.7,0.3,2.1,0.9c0.4,0.6,0.6,1.4,0.6,2.4v11.3h0.8h6.9h1.8v-4.7h-1.8v-6.1
	c0-1.1,0.3-2,0.7-2.8c0.5-0.7,1.2-1.1,2.2-1.1s1.7,0.3,2.1,0.9c0.4,0.6,0.6,1.4,0.6,2.4v6.5v4.7h7.7h2.2v-4.7L179.2,290.6z
	 M201.2,277.6c-4.3-4.2-11.4-4.2-15.7,0c-4.3,4.2-4.3,10.9,0,15c4.3,4.2,11.4,4.2,15.7,0C205.5,288.5,205.5,281.8,201.2,277.6z
	 M215.5,295.3h2.1v-4.7h-2.1v-23.4h-0.6h-7.4h-2.1v4.7h2.1v18.7h-2.1v4.7h2.1H215.5z M225.4,269.5l1.3,2.8l9.2-2.6l-2.3-4.7
	L225.4,269.5z M227.6,280.5c0.6-0.6,1.5-1,2.5-1c0.9,0,1.7,0.3,2.3,1c0.6,0.6,1,1.5,1.2,2.6h-7.2C226.6,282,227,281.2,227.6,280.5z
	 M240.9,287.1c0.1-0.6,0.2-1.2,0.2-1.9c0-5.9-5-10.6-11.2-10.6c-6.1,0-11.2,4.7-11.2,10.6c0,5.9,5,10.6,11.2,10.6
	c4.6,0,8.6-2.7,10.3-6.5h-6.8c-0.6,1-1.5,1.5-2.9,1.5c-1.2,0-2.1-0.3-2.7-1c-0.7-0.6-1.1-1.6-1.3-2.8H240.9z"/>
<path fill="#FFFFFF" d="M119,269.5l1.3,2.8l9.2-2.6l-2.3-4.7L119,269.5z M121.2,280.5c0.6-0.6,1.5-1,2.5-1c0.9,0,1.7,0.3,2.3,1
	c0.6,0.6,1,1.5,1.2,2.6H120C120.2,282,120.6,281.2,121.2,280.5z M134.5,287.1c0.1-0.6,0.2-1.2,0.2-1.9c0-5.9-5-10.6-11.2-10.6
	s-11.2,4.7-11.2,10.6c0,5.9,5,10.6,11.2,10.6c4.6,0,8.6-2.7,10.3-6.5H127c-0.6,1-1.5,1.5-2.9,1.5c-1.2,0-2.1-0.3-2.7-1
	c-0.7-0.6-1.1-1.6-1.3-2.8H134.5z M109.1,295.3h2.1v-4.7h-2.1v-23.4h-0.6h-7.4h-2.1v4.7h2.1v18.7h-2.1v4.7h2.1H109.1z M87,274.6
	c-6.1,0-11.1,4.7-11.1,10.6c0,5.9,4.9,10.6,11.1,10.6c6.1,0,11.1-4.7,11.1-10.6C98.1,279.3,93.1,274.6,87,274.6z M64.8,290.6v4.7
	h7.7h1.7v-4.7h-1.7v-8.3c0-2.3-0.6-4.2-1.9-5.6c-1.2-1.4-3.1-2.1-5.5-2.1c-1.5,0-2.7,0.3-3.7,0.8c-1,0.5-1.9,1.2-2.7,2.1h-0.1v-10.4
	h-0.5H51h-2.2v4.7H51v18.7h-2.2v4.7H51h7.7h2.2v-4.7h-2.2v-6.1c0-1.1,0.3-2,0.9-2.8c0.5-0.7,1.3-1.1,2.3-1.1c1,0,1.7,0.3,2.2,1
	c0.5,0.6,0.7,1.5,0.7,2.5V290.6z"/>
<path d="M92.1,280.8c0,0.4-0.3,0.7-0.7,0.7c-0.4,0-0.7-0.3-0.7-0.7s0.3-0.7,0.7-0.7C91.7,280.1,92.1,280.5,92.1,280.8z M89.7,279.4
	c0,0.4-0.4,0.8-0.9,0.8c-0.5,0-0.9-0.4-0.9-0.8s0.4-0.8,0.9-0.8C89.3,278.6,89.7,279,89.7,279.4z M91.7,277.4c0,0.6-0.5,1.1-1.1,1.1
	s-1.1-0.4-1.1-1.1c0-0.6,0.5-1.1,1.1-1.1S91.7,276.8,91.7,277.4z M91.1,284.8c-0.1,0.3-0.5,0.5-0.8,0.4c-0.3-0.1-0.5-0.4-0.4-0.8
	c0.1-0.3,0.5-0.5,0.8-0.4C91.1,284.2,91.3,284.5,91.1,284.8z M93,283.3c-0.1-0.1-0.2-0.1-0.3-0.1c-1.3-0.5-3.9-1.1-6.8,0.5
	c-2.7,1.5-3.7,3.6-4.1,5.1c-0.5-0.4-1.8-1.3-3.6-0.6c-0.1,0-0.1,0.1-0.1,0.1s0,0.1,0,0.2c0,0,0,0.1,0.1,0.1c2.4,1.9,2.9,4.5,2.9,4.5
	c0,0.1,0.1,0.1,0.1,0.1c0.1,0,0.1,0,0.2,0c1.1-0.9,1.4-1.9,1.3-2.8c1.3,0.3,3.9,0.6,6.5-0.8c2.9-1.5,4-3.6,4.5-4.7
	c0-0.1,0-0.1,0-0.2s-0.1-0.1-0.1-0.1l-1-0.1l0.6-1c0-0.1,0.1-0.1,0-0.1C93.1,283.3,93.1,283.3,93,283.3z"/>
<path d="M200.1,285.6c-0.3,0.3-0.7,0.3-1,0c-0.3-0.3-0.3-0.7,0-1c0.3-0.3,0.7-0.3,1,0C200.4,284.9,200.4,285.3,200.1,285.6z
	 M199.5,283c-0.3,0.3-0.9,0.3-1.2,0c-0.3-0.3-0.3-0.8,0-1.2c0.3-0.3,0.9-0.3,1.2,0C199.9,282.2,199.9,282.7,199.5,283z M202.5,282.9
	c-0.4,0.4-1.1,0.4-1.5,0c-0.4-0.4-0.4-1.1,0-1.5c0.4-0.4,1.1-0.4,1.5,0C202.9,281.8,202.9,282.5,202.5,282.9z M196.6,287.8
	c-0.3,0.1-0.7,0.1-0.9-0.3c-0.1-0.3-0.1-0.6,0.3-0.8c0.3-0.1,0.7-0.1,0.9,0.3C197,287.2,196.9,287.6,196.6,287.8z M199.1,287.9
	c-0.1-0.1-0.1-0.2-0.1-0.3c-0.5-1.2-1.9-3.4-5.2-4.2c-3-0.8-5.3,0.1-6.6,0.8c-0.1-0.7-0.4-2.1-2.1-2.9c-0.1,0-0.1,0-0.2,0
	s-0.1,0.1-0.1,0.1v0.1c0.3,2.9-1.3,5.2-1.3,5.2c-0.1,0.1-0.1,0.1,0,0.2c0,0.1,0.1,0.1,0.1,0.1c1.4,0.1,2.4-0.4,2.9-1.1
	c0.7,1.1,2.3,3.1,5.2,3.8c3.2,0.8,5.5,0.2,6.6-0.3c0.1,0,0.1-0.1,0.1-0.1c0-0.1,0-0.1-0.1-0.2l-0.6-0.7l1.1-0.3
	c0.1,0,0.1-0.1,0.1-0.1C199.1,288,199.1,287.9,199.1,287.9z"/>
<path fill="#FFFFFF" d="M24.3,233.1l-3.4-1.7l3.5-7.3c1,0.4,1.8,0.9,2.3,1.3c0.5,0.4,0.9,0.9,1.3,1.5c0.3,0.6,0.7,1.4,1,2.3
	c0.4,1.2,0.7,2,1,2.5c0.3,0.4,0.6,0.8,1.1,1c0.3,0.2,0.7,0.2,1.1,0.1c0.3-0.1,0.6-0.3,0.7-0.6c0.2-0.4,0.2-0.9-0.1-1.3
	c-0.3-0.4-0.9-0.8-1.7-1.2l1.1-2c1.1,0.5,1.9,1.1,2.3,1.7c0.4,0.6,0.6,1.2,0.6,1.9s-0.2,1.3-0.5,2c-0.5,1.1-1.3,1.8-2.2,2.1
	c-0.9,0.3-1.9,0.3-2.8-0.1c-0.5-0.2-0.9-0.5-1.3-0.9c-0.3-0.4-0.6-0.8-0.7-1.2c-0.1-0.4-0.3-1.1-0.5-2c-0.3-1.5-0.6-2.4-0.9-2.9
	c-0.3-0.5-0.7-0.8-1-1l-1.6,3.3l1.5,0.7L24.3,233.1z M18,239.2c0.5-1.3,1.4-2.2,2.7-2.5c1.3-0.3,3.1-0.2,5.1,0.5
	c2,0.6,3.5,1.5,4.3,2.6c0.9,1,1.1,2.2,0.6,3.6c-0.5,1.3-1.4,2.2-2.7,2.5c-1.3,0.3-3.1,0.1-5.1-0.5c-2.1-0.7-3.5-1.5-4.3-2.6
	C17.7,241.7,17.5,240.5,18,239.2z M20,239.8c-0.2,0.6,0.1,1.2,1.1,1.7c0.9,0.5,1.9,0.9,2.7,1.2c1.4,0.4,2.5,0.7,3.3,0.8
	c0.8,0,1.3-0.2,1.5-0.7c0.2-0.5-0.1-1-0.7-1.4c-0.7-0.4-1.7-0.9-3.1-1.4c-1.4-0.4-2.5-0.7-3.3-0.8C20.7,239.2,20.2,239.4,20,239.8z
	 M14.7,251.2l2.1,0.4l-0.3,1.7l3.5,0.6l5.7-2.4l0.3-1.5l2.1,0.4l-1.3,6.1l-2.1-0.4L25,255l-3.5,1.2l2.7,2.4l0.3-1.3l2.1,0.4
	l-1.1,5.4l-2.1-0.4l0.3-1.5l-4.4-4.1l-3.5-0.6l-0.3,1.7l-2.1-0.4L14.7,251.2z M12.6,263.1l2.2,0.2l-0.1,1.5l8.6,0.7l0.1-1.5l2.2,0.2
	l-1,11l-4.1-0.3l0.2-2.4l1.9,0.2l0.3-3.8l-3-0.3l-0.3,3.1l-2.2-0.2l0.3-3.1l-3.4-0.3L14,272l1.9,0.2l-0.2,2.4l-4.1-0.3L12.6,263.1z
	 M14,289.4l-2.2,0.1l-0.1-6.1l2.2-0.1v1.6l2.2-0.6l-0.1-3.3l-2.3-0.6v1.7l-2.2,0.1l-0.1-5.6l2.2-0.1v1.5l8.7,2.3v-1.7l2.2-0.1
	l0.1,8.2l-2.2,0.1v-1.7l-8.6,2.8L14,289.4z M18.1,283.6l3.9-1.1l-3.9-1.1V283.6z M16,304.3l-2.2,0.3l-0.5-3.8l5.3-3.5l-0.2-1.4
	l-3.5,0.4l0.2,1.5l-2.2,0.3l-0.8-6.5l2.2-0.3l0.2,1.7l8.6-1l-0.2-1.7l2.2-0.3l0.9,7.5c0.2,1.4-0.1,2.5-0.7,3.2
	c-0.7,0.7-1.5,1.1-2.4,1.2c-1.5,0.2-2.7-0.4-3.5-1.8l-3.7,2.5L16,304.3z M20.5,295.7l0.1,1.1c0.2,1.3,0.8,2,1.8,1.9
	c0.5-0.1,0.9-0.3,1.1-0.6c0.2-0.3,0.3-0.8,0.2-1.3l-0.2-1.4L20.5,295.7z M14.8,307.2l4.3-1.1l0.6,2c-0.8,0.2-1.3,0.6-1.6,1
	s-0.3,1-0.2,1.4c0.1,0.4,0.3,0.6,0.7,0.8c0.3,0.2,0.7,0.3,1.1,0.1c0.4-0.1,0.7-0.3,0.9-0.6c0.2-0.3,0.3-0.8,0.5-1.6
	c0.3-1.6,0.7-2.7,1.1-3.3c0.4-0.6,1.1-1.1,1.9-1.3c1.1-0.3,2.1-0.2,2.8,0.3c0.8,0.5,1.3,1.2,1.5,2c0.3,1,0.1,1.8-0.5,2.6l1.1-0.3
	l0.6,2l-3.8,1l-0.6-2c0.6-0.2,1-0.5,1.2-1c0.2-0.4,0.3-0.8,0.1-1.3c-0.1-0.3-0.3-0.6-0.5-0.8c-0.3-0.2-0.5-0.3-0.9-0.2
	c-0.3,0.1-0.5,0.3-0.7,0.4c-0.2,0.3-0.3,0.9-0.5,1.9c-0.2,1-0.3,1.8-0.5,2.4c-0.2,0.6-0.5,1-1,1.5c-0.5,0.4-1.1,0.7-1.7,0.9
	c-1.3,0.3-2.3,0.2-3.1-0.3c-0.8-0.5-1.4-1.3-1.6-2.2c-0.3-1.1-0.1-2,0.5-2.8l-1.1,0.3L14.8,307.2z M20.2,323.9l4.4-1.6l0.6,1.5
	l-1.1,0.4c-1.1,1.2-1.3,2.4-0.9,3.5c0.2,0.6,0.6,1,1.1,1.3c0.5,0.3,1.1,0.3,1.7,0.1c0.6-0.2,0.9-0.5,1.1-1c0.1-0.4,0.1-1.2,0-2.1
	c-0.1-1.2-0.1-2-0.1-2.6c0.1-0.6,0.3-1.2,0.6-1.6c0.3-0.4,0.9-0.8,1.5-1.1c1-0.4,1.9-0.3,2.9,0.1c0.9,0.4,1.5,1.2,1.9,2.1
	c0.4,1,0.4,1.9,0.1,2.9l0.8-0.3l0.6,1.4l-3.7,1.3l-0.6-1.4l0.9-0.3c0.7-1,0.9-1.9,0.4-3c-0.3-0.6-0.6-1.1-1.1-1.3
	c-0.5-0.3-0.9-0.3-1.3-0.1c-0.3,0.1-0.6,0.3-0.7,0.6c-0.2,0.3-0.3,0.6-0.3,0.9c0,0.3,0.1,0.9,0.1,1.8c0.1,1.2,0.2,2,0.1,2.6
	c-0.1,0.6-0.3,1.1-0.7,1.7c-0.4,0.6-1,1-1.7,1.2c-1.1,0.4-2.1,0.3-3-0.1c-0.9-0.4-1.7-1.2-2.1-2.2c-0.4-1.1-0.4-2.2,0.1-3.3l-1,0.4
	L20.2,323.9z M27.1,335.3l8.5-4.5l-0.8-1.4l1.4-0.8l5.3,9.1l-3.5,1.9l-0.8-1.3l2-1.1l-2.7-4.7l-3.4,1.8l2.3,4.1l-1.4,0.8l-2.3-4.1
	l-3.7,2l2.7,4.7l2.1-1.1l0.8,1.3l-3.5,1.9l-5.3-9.1l1.4-0.8L27.1,335.3z M33.9,346.5l8-5.4l-1-1.4l1.3-0.9l3.1,4.2
	c0.7,0.9,1.1,1.6,1.3,2.2c0.2,0.6,0.3,1.2,0.1,1.9c-0.2,0.6-0.7,1.2-1.3,1.7c-1.4,1-2.8,0.8-4.2-0.3l-2.5,4.4l0.9,1.3l-1.3,0.9
	l-1.6-2.2l3.3-5.7l-1.1-1.5l-3.7,2.4l0.9,1.3l-1.3,0.9l-3.1-4.3L33,345L33.9,346.5z M40,344.7l0.9,1.2c0.4,0.6,0.8,1,1.1,1.2
	c0.3,0.2,0.6,0.3,1,0.4c0.4,0,0.7-0.1,1.2-0.4c0.3-0.3,0.6-0.5,0.7-0.8c0.1-0.3,0.1-0.6,0-1c-0.1-0.3-0.4-0.7-0.8-1.3l-0.9-1.3
	L40,344.7z M42.5,360.4l6-10.4l-1.1-1.2l1.3-1l3.3,3.8l-1.3,1l-1-1.1l-4.6,7.9l8.8-3l-1-1.1l1.3-1l3.2,3.7l-1.3,1l-1-1.2l-11.6,4
	L42.5,360.4z M51.7,367.4l6.8-6.8l-1.1-0.9l1.1-1.2l3.5,3.2l-1.1,1.2l-1-1l-6.8,6.7l1,1l-1.1,1.2l-3.5-3.2l1.1-1.2L51.7,367.4z
	 M57.1,372.5l6.1-7.3l-1.5-1.2l1-1.2l3.5,2.7l-1.9,11l5.3-6.3l-1.5-1.1l1-1.2l4.1,3.3l-1,1.2l-1.5-1.2l-7.3,8.6l-1.6-1.2l2.1-12.1
	l-5.9,7l1.5,1.2l-1,1.2l-4.1-3.2l1-1.2L57.1,372.5z M78.6,381.9l4,2.5c-0.1,0.1-0.1,0.3-0.3,0.4c-1,1.5-2.3,2.4-3.9,2.6
	c-1.6,0.3-3.3-0.1-4.9-1.2c-2-1.2-3.1-2.7-3.3-4.4c-0.3-1.7,0.1-3.3,1.1-4.7c1.1-1.5,2.4-2.5,4.1-2.9c1.7-0.4,3.4-0.1,5.1,1
	c1.5,1,2.5,2.2,2.9,3.7l0.8-1.2l1.4,0.9l-2.3,3.5l-1.4-0.9c0.1-0.8,0-1.5-0.3-2.4c-0.3-0.9-1-1.6-1.9-2.1c-1.2-0.8-2.4-1-3.6-0.6
	c-1.2,0.3-2.2,1.1-2.9,2.2c-0.9,1.3-1.1,2.5-0.9,3.7c0.3,1.2,1,2.2,2.1,2.9c0.9,0.5,1.8,0.8,2.8,0.8c1-0.1,1.8-0.4,2.4-1.1l-2-1.2
	L78.6,381.9z M88.6,392.3l3.7-8.7l-1.5-0.6l0.6-1.5l4.1,1.6l-0.2,9.2l6.5-6.7l4.2,1.6l-0.6,1.5l-1.5-0.6l-3.7,8.7l1.5,0.6l-0.6,1.5
	l-4.5-1.8l0.6-1.5l1.5,0.6l3.7-8.7l-8.5,8.6l-0.3-0.1l0.2-11.9l-3.7,8.7l1.3,0.5l-0.6,1.5l-4.3-1.7l0.6-1.5L88.6,392.3z
	 M106.3,398.5l2.7-9l-1.6-0.4l0.5-1.5l10.4,2.9l-1.1,3.6l-1.6-0.4l0.6-2.1l-5.3-1.5l-1.1,3.6l4.7,1.3l-0.5,1.5l-4.7-1.3l-1.2,4
	l5.3,1.5l0.7-2.2l1.5,0.4l-1.1,3.7l-10.4-2.9l0.5-1.5L106.3,398.5z M119.4,401.6l4.2-4l-2.3-5.2l-1.7-0.3l0.3-1.5l5.1,1l-0.3,1.5
	l-1.5-0.3l1.6,3.5l2.9-2.7l-1.5-0.3l0.3-1.5l4.9,0.9l-0.3,1.5l-1.6-0.3l-4.1,3.8l2.5,5.4l1.7,0.3l-0.3,1.5l-5.3-1l0.3-1.5l1.5,0.3
	l-1.7-3.8l-3,2.9l1.5,0.3l-0.3,1.5l-5.1-1l0.3-1.5L119.4,401.6z M133.7,403.4l0.9-9.3l-1.4-0.1l0.1-1.5l4.8,0.4l-0.1,1.5l-1.4-0.1
	l-0.9,9.3l1.4,0.1l-0.1,1.5l-4.8-0.4l0.1-1.5L133.7,403.4z M150,400.1l1.7,0.8c-0.3,1.4-1.1,2.5-2.2,3.3c-1.1,0.8-2.5,1.2-3.9,1.3
	c-2,0.1-3.6-0.5-4.8-1.7c-1.3-1.2-1.9-2.7-1.9-4.5c-0.1-2,0.5-3.6,1.6-4.8c1.1-1.2,2.7-1.9,4.6-1.9c1.7-0.1,3.1,0.3,4.3,1.2
	l-0.1-1.2l1.7-0.1l0.1,4l-1.7,0.1c-0.4-0.8-1-1.4-1.8-1.9c-0.8-0.4-1.6-0.6-2.5-0.6c-1.3,0.1-2.3,0.5-3.1,1.5c-0.8,1-1.2,2-1.1,3.5
	c0.1,1.4,0.5,2.6,1.5,3.4c0.9,0.8,2,1.3,3.2,1.2c1-0.1,1.9-0.4,2.7-1C149.1,402.1,149.7,401.2,150,400.1z M161.1,399.8l-4.7,0.6
	l-0.6,2.9l1.6-0.2l0.2,1.5l-5.1,0.7l-0.2-1.5l1.5-0.2l2.1-9.9l-1.6,0.2l-0.2-1.4l6.6-0.9l0.2,1.4l-1.6,0.2l5,9l1.5-0.2l0.2,1.5
	l-5.1,0.7l-0.2-1.5l1.6-0.2L161.1,399.8z M160.4,398.4l-2.5-4.9h-0.2l-1,5.4L160.4,398.4z M169.4,401.4l-2.2-9.1l-1.8,0.4l-0.4-1.5
	l4.3-1l7.9,8.3l-1.9-7.9l-1.8,0.4l-0.4-1.5l5.2-1.2l0.4,1.5l-1.9,0.4l2.6,10.8l-2,0.4l-8.6-9.1l2.1,8.8l1.8-0.4l0.4,1.5l-5.2,1.2
	l-0.4-1.5L169.4,401.4z M182,394.4l5.3-1.7l0.6,1.6l-5.3,1.7L182,394.4z M192.6,394.5l-3.7-8.7l-1.3,0.5l-0.6-1.5l4.5-1.7l0.6,1.5
	l-1.3,0.5l3.7,8.7l1.3-0.5l0.6,1.5l-4.5,1.7l-0.6-1.5L192.6,394.5z M199.7,391.7l-4.6-8.3l-1.7,0.8l-0.7-1.4l3.9-2l9.8,6l-4-7.2
	l-1.6,0.8l-0.7-1.4l4.7-2.4l0.7,1.4l-1.7,0.9l5.4,9.8l-1.8,0.9l-10.8-6.6l4.4,7.9l1.7-0.8l0.7,1.4l-4.7,2.4l-0.7-1.4L199.7,391.7z
	 M213.1,386.4l-2.6-3.8l1.4-0.8l0.6,1c1.4,0.7,2.7,0.8,3.7,0.1c0.5-0.3,0.9-0.8,1.1-1.3c0.1-0.6,0.1-1.1-0.3-1.6
	c-0.3-0.5-0.7-0.8-1.2-0.8c-0.5,0-1.2,0.1-2.1,0.4c-1.1,0.4-2.1,0.6-2.7,0.6c-0.6,0.1-1.2,0-1.8-0.3c-0.5-0.3-1.1-0.6-1.4-1.2
	c-0.6-0.9-0.7-1.8-0.5-2.7c0.3-0.9,0.9-1.7,1.8-2.2c0.9-0.6,1.9-0.8,3-0.7l-0.5-0.7l1.3-0.8l2.1,3.2l-1.3,0.8l-0.5-0.7
	c-1.1-0.4-2.1-0.4-3.1,0.3c-0.6,0.4-1,0.8-1.1,1.3c-0.1,0.4-0.1,0.9,0.1,1.2c0.2,0.3,0.5,0.5,0.7,0.6c0.3,0.1,0.6,0.1,0.9,0.1
	s0.9-0.3,1.8-0.5c1.1-0.4,2-0.6,2.5-0.6c0.6-0.1,1.2,0.1,1.8,0.3c0.7,0.3,1.2,0.8,1.6,1.4c0.6,0.9,0.8,1.9,0.5,2.8
	c-0.3,1-0.9,1.8-1.9,2.4c-1,0.6-2.1,0.8-3.4,0.6l0.6,0.9L213.1,386.4z M223.2,377.8l-6.1-7.3l-1.3,1l-1-1.2l3.6-2.8
	c1.1-0.8,1.9-1.3,2.6-1.7c0.7-0.3,1.4-0.3,2.1-0.1c0.8,0.3,1.5,0.7,2.1,1.4c0.5,0.6,0.8,1.2,0.9,1.8c0.1,0.6,0.1,1.2-0.1,1.7
	c-0.2,0.4-0.5,0.9-0.8,1.3c-0.4,0.4-1,1-1.9,1.7l-0.7,0.5l2.1,2.5l1.3-1l1,1.2l-4.1,3.2l-1-1.2L223.2,377.8z M221.7,373l0.9-0.7
	c1-0.8,1.6-1.5,1.7-2c0.1-0.6-0.1-1.2-0.7-1.9c-0.4-0.4-0.8-0.7-1.2-0.8c-0.5-0.1-0.9-0.1-1.2,0.1c-0.4,0.1-0.9,0.5-1.6,1l-0.9,0.8
	L221.7,373z M232.9,369.9l-6.8-6.8l-1,1l-1.1-1.2l3.5-3.2l1.1,1.2l-1,1l6.8,6.8l1-1l1.1,1.2l-3.5,3.2l-1.1-1.2L232.9,369.9z
	 M238.5,364.7l-7.5-6l-1.1,1.3l-1.3-1l3.4-3.9c0.7-0.8,1.3-1.4,1.9-1.8s1.2-0.5,1.9-0.5s1.3,0.3,2,0.8c1.3,1.1,1.6,2.4,0.7,4
	l5.1,1.2l1-1.2l1.3,1l-1.8,2l-6.6-1.6l-1.2,1.3l3.4,2.8l1.1-1.2l1.3,1l-3.5,4l-1.3-1L238.5,364.7z M235.1,359.5l1-1.2
	c0.5-0.6,0.8-1,0.9-1.3c0.1-0.3,0.2-0.6,0.1-1c-0.1-0.3-0.3-0.7-0.7-1c-0.3-0.3-0.7-0.4-1.1-0.4c-0.4,0-0.7,0.1-1,0.3
	c-0.3,0.2-0.6,0.6-1.1,1.1l-1.1,1.2L235.1,359.5z M247.2,354.8l-8-5.4l-1,1.3l-1.3-0.9l6.2-8.5l3.2,2.2l-0.9,1.3l-1.9-1.3l-3.2,4.4
	l3.2,2.1l2.8-3.8l1.3,0.9l-2.8,3.8l3.5,2.4l3.2-4.4l-1.9-1.3l0.9-1.3l3.3,2.2l-6.2,8.5l-1.3-0.9L247.2,354.8z M255,343.9l-8.5-4.5
	l-0.9,1.5l-1.4-0.8l2.5-4.2c0.7-1.2,1.3-2,1.7-2.6c0.5-0.6,1.1-1,1.9-1.4c0.8-0.4,1.7-0.5,2.7-0.4c1,0.1,1.9,0.3,2.9,0.9
	c1.1,0.6,2,1.3,2.7,2c0.7,0.8,1,1.5,1.1,2.3c0.1,0.8,0,1.6-0.3,2.4s-0.7,1.9-1.5,3.1l-2.3,4l-1.4-0.8L255,343.9z M256,342.3l0.5-0.9
	c0.5-1,0.9-1.8,1.1-2.4c0.2-0.6,0.3-1.2,0.2-1.8c-0.1-0.6-0.3-1.1-0.8-1.7c-0.5-0.6-1.1-1.1-1.9-1.5c-1-0.5-1.9-0.8-2.9-0.8
	s-1.7,0.3-2.2,0.8c-0.6,0.5-1.2,1.4-1.9,2.7l-0.5,1L256,342.3z M264.6,325.2l-9.2-3.4l-0.6,1.5l-1.5-0.6l3.6-9.1l3.7,1.3l-0.6,1.5
	l-2.1-0.8l-1.7,4.4l3.6,1.3l1.5-3.8l1.5,0.6l-1.5,3.8l4,1.5l0.6-1.5l1.5,0.6l-1.9,4.7l-1.5-0.6L264.6,325.2z M267.3,308.2l-1.2,4.4
	l2.6,1.7l0.4-1.5l1.6,0.4l-1.3,4.7l-1.6-0.4l0.4-1.5l-8.7-5.8l-0.4,1.5l-1.4-0.4l1.7-6.2l1.4,0.4l-0.4,1.5l10.6-0.9l0.4-1.3l1.6,0.4
	l-1.3,4.7l-1.6-0.4l0.4-1.5L267.3,308.2z M265.7,308.3l-5.7,0.3l-0.1,0.2l4.8,3L265.7,308.3z M273.9,299.3l-12.2,2.2l-0.3,1.5
	l-1.6-0.3l0.9-4.9l1.6,0.3l-0.3,1.4l9.2-1.7l-8.1-4.5l-0.3,1.4l-1.6-0.3l0.9-4.7l1.6,0.3l-0.3,1.5l10.6,6L273.9,299.3z M268.8,290.2
	c-1.9,0-3.5-0.6-4.7-1.9c-1.3-1.2-1.9-2.8-1.8-4.7c0.1-1.9,0.7-3.5,2-4.7c1.3-1.2,2.9-1.8,4.8-1.7c1.9,0.1,3.5,0.7,4.8,1.9
	c1.3,1.3,1.9,2.8,1.8,4.7c0,1.2-0.3,2.3-0.9,3.3c-0.6,1-1.5,1.7-2.5,2.2C271.1,290,270,290.3,268.8,290.2z M268.9,288.1
	c1.5,0,2.7-0.4,3.6-1.2c1-0.8,1.5-1.9,1.5-3.1c0-1.3-0.5-2.4-1.4-3.2c-1-0.8-2.1-1.3-3.5-1.3c-1.4,0-2.6,0.4-3.5,1.2
	c-1,0.8-1.5,1.9-1.5,3.2c0,1.3,0.4,2.3,1.3,3.1C266.3,287.7,267.5,288.1,268.9,288.1z M274,273.7l-9.8,0.8l0.1,1.7l-1.6,0.1
	l-0.5-5.1c-0.1-1.1-0.1-1.9,0-2.6c0.1-0.6,0.4-1.2,0.9-1.7c0.5-0.4,1.2-0.7,2-0.8c1.7-0.1,2.9,0.6,3.5,2.3l4.5-2.6l-0.1-1.5l1.6-0.1
	l0.3,2.7l-5.8,3.3l0.1,1.7l4.5-0.4l-0.1-1.6l1.6-0.1l0.5,5.2l-1.6,0.1L274,273.7z M267.7,272.4l-0.1-1.5c-0.1-0.7-0.1-1.2-0.3-1.5
	c-0.1-0.3-0.3-0.6-0.7-0.8c-0.3-0.2-0.7-0.3-1.2-0.2c-0.4,0.1-0.8,0.2-1.1,0.4c-0.3,0.3-0.5,0.5-0.5,0.8c-0.1,0.3-0.1,0.8,0,1.5
	l0.1,1.6L267.7,272.4z M272.6,260.9l-9.7,1.3l0.2,1.3l-1.6,0.2l-0.7-4.5l1.6-0.2l0.2,1.3l9.7-1.3l-0.2-1.3l1.6-0.2l0.7,4.5l-1.6,0.2
	L272.6,260.9z M270.8,251.2l-9.6,2.1l0.6,2.5l3.3-0.7l0.3,1.5l-4.9,1.1l-2.4-9.9l4.9-1.1l0.3,1.5l-3.3,0.7l0.6,2.5l9.6-2.1l-0.4-1.6
	l1.6-0.4l1.2,5l-1.6,0.4L270.8,251.2z M268.1,241.6l-9.3,3.1l0.5,1.5l-1.5,0.5l-3.5-9.9l3.7-1.2l0.5,1.5l-2.2,0.7l1.8,5.1l3.7-1.2
	l-1.6-4.4l1.5-0.5l1.6,4.4l4.1-1.3l-1.8-5.1l-2.3,0.8l-0.5-1.5l3.8-1.3l3.5,9.9l-1.5,0.5L268.1,241.6z M265.3,229.8l-4.3,1.9
	l-0.7-1.4l1.1-0.4c0.9-1.3,1.2-2.4,0.7-3.5c-0.3-0.6-0.7-1-1.2-1.2c-0.5-0.3-1.1-0.2-1.7,0.1c-0.5,0.3-0.9,0.6-1,1
	c-0.1,0.4-0.1,1.2,0.1,2.1c0.2,1.2,0.3,2,0.3,2.6c0,0.6-0.2,1.2-0.5,1.7c-0.3,0.5-0.8,0.9-1.5,1.2c-1,0.4-1.9,0.5-2.9,0.1
	c-0.9-0.4-1.6-1-2.1-2c-0.5-0.9-0.5-1.9-0.3-2.9l-0.8,0.4l-0.7-1.4l3.6-1.6l0.7,1.4l-0.8,0.4c-0.6,1-0.7,2-0.2,3
	c0.3,0.6,0.7,1,1.1,1.2c0.5,0.2,0.9,0.2,1.3,0c0.3-0.1,0.5-0.3,0.7-0.6c0.1-0.3,0.2-0.6,0.2-0.9c0-0.3-0.1-0.9-0.3-1.7
	c-0.2-1.2-0.3-2-0.3-2.5c0-0.6,0.2-1.2,0.6-1.7c0.4-0.6,0.9-1,1.7-1.3c1-0.4,2-0.5,3-0.1c1,0.4,1.7,1.1,2.2,2.1
	c0.5,1,0.6,2.1,0.2,3.3l1-0.4L265.3,229.8z"/>
<path d="M138.5,365.9h3.6c0.1,0,0.1-0.1,0.1-0.1l1.1-3.3c0.1-0.1,0.2-0.1,0.3,0l1.1,3.3c0,0.1,0.1,0.1,0.1,0.1h3.6
	c0.1,0,0.2,0.2,0.1,0.3l-2.9,2c-0.1,0.1-0.1,0.1-0.1,0.1l1.1,3.3c0.1,0.1-0.1,0.2-0.2,0.1l-2.9-2c-0.1-0.1-0.1-0.1-0.1,0l-2.9,2
	c-0.1,0.1-0.3,0-0.2-0.1l1.1-3.3c0-0.1,0-0.1-0.1-0.1l-2.9-2C138.3,366.1,138.3,365.9,138.5,365.9z"/>
<path fill="#FFFFFF" d="M169.1,25.5v6.2h-1.9v-4.4h-1.5v13.1h1.4v2h-5.3v-2h1.4V27.3h-1.5v4.4h-1.9v-6.2H169.1z M174,34.4v6h0.8v2
	h-4.7v-2h1.3V27.5h-1.3v-2h4.7v2H174v4.9h2.5v-4.9h-0.9v-2h4.7v2H179v12.9h1.3v2h-4.7v-2h0.9v-6H174z M185.3,36.5l-0.4,3.8h1.1v2
	h-4.7v-2h1.1l1.9-12.9h-1.2v-2h6.5v2h-1.2l1.9,12.9h1.1v2h-4.7v-2h1.1l-0.4-3.8H185.3z M185.5,34.4h1.8l-0.7-7.6h-0.3L185.5,34.4z
	 M192.5,42.4v-2h1.2V27.5h-1.2v-2h3.9l2,6.1l1.2,4.9h0.1l-0.3-5.1v-4h-1.2v-2h4.5v2h-1.2v14.9h-2l-2.2-6.5c-0.3-0.7-0.5-1.5-0.7-2.6
	l-1-3.8h-0.1l0.2,5.2v5.7h1.2v2L192.5,42.4z M203.9,42.4v-2h1.3V27.5h-1.3v-2h4.7v2h-1v12.9h1v2H203.9z M209.3,42.4v-2h1.1l-2.5-6.7
	l2.5-6.1h-1.1v-2h4.5v2h-1.1l-2.3,5.7l2.7,7.2h1.1v2H209.3z"/>
<path fill="#FFFFFF" d="M224,88.6v-2h1.3v-5.4l-2.9-7.4h-1.1v-2h4.8v2h-1.1l1.6,4.5h0.1l1.5-4.5H227v-2h4.5v2h-1.1l-2.6,7.2v5.6h1.3
	v2H224z M239.5,80.2c0,5.8-1.3,8.6-4.1,8.6c-1.4,0-2.4-0.7-3.1-2.2c-0.7-1.4-1-3.6-1-6.5c0-1.9,0.1-3.6,0.5-4.9
	c0.3-1.3,0.8-2.3,1.4-2.9c0.6-0.6,1.3-1,2.2-1c1.3,0,2.3,0.8,3,2.2C239.2,75,239.5,77.2,239.5,80.2z M234.1,80.2
	c0,2.4,0.1,4.1,0.3,5c0.2,0.9,0.5,1.3,1.1,1.3c0.5,0,0.9-0.4,1.1-1.3c0.2-0.9,0.3-2.6,0.3-5c0-2.7-0.1-4.5-0.3-5.4
	c-0.2-0.9-0.5-1.3-1.1-1.3c-0.6,0-0.9,0.5-1.1,1.5C234.2,76,234.1,77.8,234.1,80.2z M240.9,73.7v-2h4.8v2h-0.9v10.9
	c0,0.8,0.1,1.4,0.3,1.7c0.2,0.3,0.6,0.5,1.1,0.5c0.5,0,0.9-0.2,1.1-0.5c0.2-0.3,0.3-0.9,0.3-1.7V73.7h-0.9v-2h4.4v2h-1.3v10.7
	c0,1.5-0.3,2.7-1.1,3.3c-0.7,0.7-1.6,1-2.7,1c-1.1,0-2.1-0.3-2.7-1c-0.7-0.7-1-1.5-1-2.6V73.5L240.9,73.7z M252.8,84l-0.6-7.2v-5.3
	h2.4v5.3L254,84H252.8z M252.2,88.6v-2.8h2.4v2.8H252.2z"/>
<path fill="#FFFFFF" d="M182.9,104.2v7.7h-10.8v-2c0-1,0.1-2,0.3-3.1c0.3-1,0.6-2,1.1-2.9c0.5-1,1.1-1.9,1.8-2.8l1.9-2.4
	c0.9-1.1,1.4-2,1.7-2.9c0.3-0.8,0.4-2,0.4-3.5c0-2.4-0.7-3.6-1.9-3.6c-1.4,0-2.1,1.2-2.1,3.4c0,0.1,0.1,1,0.2,2.4h-3.1
	c-0.2-0.8-0.3-1.5-0.3-2.3c0-2,0.5-3.5,1.4-4.6c0.9-1.1,2.2-1.6,3.9-1.6c1.7,0,3.1,0.6,4,1.7c0.9,1.2,1.4,2.8,1.4,4.9
	c0,1.4-0.2,2.7-0.7,3.9c-0.4,1.2-1,2.2-1.7,2.9l-2.3,2.6c-0.6,0.6-1.1,1.3-1.5,2.1c-0.4,0.8-0.8,1.5-1,2.4c-0.3,0.8-0.4,1.5-0.4,2.2
	h4.5v-4.7H182.9z M185.6,104.6h3.2c0,1.8,0.1,3.1,0.4,3.9c0.3,0.8,0.7,1.2,1.5,1.2c0.7,0,1.1-0.3,1.3-1c0.3-0.6,0.4-1.9,0.4-3.7
	c0-2.6-0.1-4.4-0.3-5.2c-0.3-0.8-0.7-1.3-1.4-1.3c-1.2,0-1.8,0.9-1.9,2.8c-1.1-0.7-1.9-1.2-2.7-1.3l0.5-13.5h8.7v5.4h-3v-2.4h-3
	L189,97c0.9-0.9,1.8-1.3,2.8-1.3c1.3,0,2.4,0.7,3.1,2c0.7,1.3,1.1,3.3,1.1,6c0,2.9-0.5,5.1-1.4,6.5c-0.9,1.5-2.2,2.2-3.9,2.2
	c-1.6,0-2.9-0.7-3.7-2C186,109,185.6,107.1,185.6,104.6z"/>
<path fill="#FFFFFF" d="M213.5,136.3v-2h1.3v-5.4l-2.9-7.4h-1.1v-2h4.8v2h-1.1l1.6,4.5h0.1l1.5-4.5h-1.2v-2h4.5v2h-1.1l-2.6,7.2v5.6
	h1.3v2H213.5z M225.5,128.6v5.6h1.3v2h-5.3v-2h1.5v-12.9h-1.5v-2h4.4c1.5,0,2.7,0.4,3.5,1.3c0.9,0.8,1.3,2,1.3,3.3
	c0,1.8-0.7,3.1-2.1,4l1.9,6.3h1.1v2h-3l-2.2-7.7C226.2,128.6,225.8,128.6,225.5,128.6z M225.5,121.4v5.2c0.9,0,1.6-0.2,2.1-0.6
	c0.4-0.4,0.6-1.1,0.6-2c0-1-0.2-1.6-0.6-2C227.1,121.6,226.4,121.4,225.5,121.4z M233,136.3v-5.8h2.1v1.5c0,0.9,0.1,1.5,0.3,1.9
	c0.2,0.4,0.5,0.6,1,0.6c0.4,0,0.7-0.1,0.9-0.4c0.2-0.3,0.3-0.7,0.3-1.2c0-0.4-0.1-0.9-0.3-1.4c-0.1-0.5-0.3-0.9-0.6-1.3
	c-0.2-0.3-0.8-1-1.7-2.2c-0.9-1.2-1.6-2-1.9-2.8c-0.3-0.7-0.5-1.5-0.5-2.4c0-1.1,0.3-2,0.8-2.8c0.5-0.7,1.2-1.1,2-1.1
	c0.7,0,1.3,0.3,1.8,0.8v-0.5h2.1v5.1h-2.1V123c0-0.7-0.1-1.2-0.3-1.5c-0.2-0.3-0.5-0.4-0.9-0.4c-0.7,0-1,0.4-1,1.3
	c0,0.5,0.1,1,0.3,1.5c0.2,0.5,0.5,1.1,1.1,1.7l1.1,1.3c1.7,2,2.5,3.8,2.5,5.7c0,1.2-0.3,2.2-0.9,2.9c-0.6,0.8-1.3,1.2-2.2,1.2
	c-0.7,0-1.3-0.3-1.9-0.8v0.5L233,136.3z"/>
<path d="M115.7,361.3c0,0.8-0.1,1.5-0.3,2c-0.1,0.6-0.4,1-0.7,1.5c-0.3,0.4-0.7,0.9-1.3,1.5c-0.9,0.9-1.3,1.9-1.5,2.8
	c0.7,0.2,1.5,0.4,2.2,0.6c0-0.6,0-1.3,0-1.9c0.5,0.1,1,0.2,1.5,0.3c0,0.8-0.1,1.5-0.1,2.3c0,0.8,0,1.5-0.1,2.3
	c-1.8-0.5-3.6-1-5.3-1.7c0-1.2,0.1-2.2,0.2-2.9c0.1-0.8,0.4-1.4,0.7-2c0.3-0.6,0.8-1.3,1.5-2.2c0.3-0.4,0.6-0.9,0.8-1.3
	c0.2-0.4,0.3-1,0.3-1.5c0-0.5-0.1-0.9-0.2-1.2c-0.1-0.3-0.3-0.4-0.6-0.4c-0.3,0-0.6,0.2-0.8,0.6c-0.1,0.4-0.3,1.2-0.3,2.2
	c-0.5-0.1-1-0.2-1.5-0.3c0-0.8,0.1-1.6,0.2-2.2c0.1-0.6,0.3-1.2,0.5-1.6c0.5-0.8,1.1-1.3,2-1.3c0.8,0,1.4,0.4,1.9,1.2
	C115.4,358.9,115.7,360,115.7,361.3z M122.1,365.6c0,1.4-0.1,2.6-0.2,3.6c-0.1,1-0.3,1.9-0.5,2.6c-0.5,1.3-1.1,2-2.1,1.8
	c-0.9-0.2-1.6-1-2.1-2.5c-0.3-0.8-0.4-1.6-0.5-2.6c-0.1-1-0.2-2.2-0.2-3.5c0-1.3,0.1-2.4,0.2-3.4c0.1-1,0.3-1.8,0.5-2.5
	c0.5-1.4,1.1-2.1,2.1-2.1c0.9,0,1.6,0.8,2.1,2.2c0.2,0.7,0.4,1.7,0.5,2.7C122.1,363,122.1,364.2,122.1,365.6z M118.4,365.2
	c0,1.9,0.1,3.3,0.2,4.2c0.1,0.9,0.4,1.4,0.7,1.5c0.3,0.1,0.5-0.4,0.7-1.2c0.1-0.9,0.2-2.3,0.2-4.2c0-1.9-0.1-3.3-0.2-4.2
	c-0.1-1-0.4-1.4-0.7-1.4c-0.3,0-0.5,0.4-0.7,1.3C118.5,362.1,118.4,363.5,118.4,365.2z M134.7,366.3c0,1.5-0.1,2.8-0.2,3.9
	c-0.1,1.2-0.3,2-0.5,2.8c-0.5,1.5-1.1,2.2-2.1,2.2c-0.9-0.1-1.6-0.9-2.1-2.4c-0.3-0.8-0.4-1.7-0.5-2.9c-0.1-1.2-0.2-2.4-0.2-3.9
	c0-1.4,0.1-2.7,0.2-3.8c0.1-1.1,0.3-2,0.5-2.8c0.5-1.5,1.1-2.3,2.1-2.3c0.9,0,1.6,0.8,2.1,2.3c0.2,0.8,0.4,1.7,0.5,2.9
	C134.7,363.5,134.7,364.9,134.7,366.3z M131.1,366.2c0,2,0.1,3.5,0.2,4.5c0.1,1,0.4,1.5,0.7,1.5c0.3,0,0.5-0.4,0.7-1.4
	c0.1-1,0.2-2.5,0.2-4.5c0-2-0.1-3.5-0.2-4.5c-0.1-1-0.4-1.5-0.7-1.5c-0.3,0-0.5,0.5-0.7,1.5C131.1,362.7,131.1,364.2,131.1,366.2z
	 M157.9,362.5c0,0.9-0.1,1.7-0.3,2.3c-0.1,0.6-0.4,1.3-0.7,1.8c-0.3,0.6-0.7,1.2-1.2,2c-0.9,1.3-1.4,2.6-1.5,3.9
	c0.7-0.1,1.5-0.1,2.2-0.2c0-0.8,0-1.5,0-2.2c0.5-0.1,1-0.1,1.5-0.1c0,0.8-0.1,1.7-0.1,2.6s0,1.7-0.1,2.6c-1.8,0.2-3.6,0.4-5.3,0.5
	c0-1.5,0.1-2.8,0.2-3.8c0.1-1,0.4-2,0.7-2.8s0.8-1.9,1.5-3.1c0.3-0.6,0.6-1.2,0.8-1.8s0.3-1.2,0.3-1.7c0-0.6-0.1-1-0.2-1.3
	c-0.1-0.3-0.3-0.4-0.6-0.4c-0.3,0-0.6,0.3-0.7,0.9c-0.2,0.6-0.3,1.5-0.3,2.8c-0.5,0-1-0.1-1.5-0.1c0-1.1,0.1-2,0.2-2.8
	c0.1-0.8,0.3-1.5,0.5-2c0.5-1.1,1.1-1.6,2-1.6c0.8,0,1.4,0.4,1.9,1.2C157.7,359.8,157.9,361,157.9,362.5z M164.3,365.9
	c0,1.3-0.1,2.6-0.2,3.6c-0.1,1.1-0.3,2-0.5,2.8c-0.5,1.5-1.1,2.4-2.1,2.5c-0.9,0.1-1.6-0.5-2.1-1.9c-0.3-0.7-0.4-1.6-0.5-2.7
	c-0.1-1.1-0.2-2.3-0.2-3.8c0-1.4,0.1-2.6,0.2-3.7c0.1-1.1,0.3-2,0.5-2.8c0.5-1.5,1.1-2.3,2.1-2.3s1.6,0.7,2.1,2.1
	c0.2,0.7,0.4,1.6,0.5,2.6C164.3,363.3,164.3,364.5,164.3,365.9z M160.7,366.3c0,1.9,0.1,3.4,0.2,4.3c0.1,0.9,0.4,1.3,0.7,1.3
	c0.3-0.1,0.5-0.5,0.7-1.5c0.1-1,0.2-2.4,0.2-4.3c0-1.9-0.1-3.3-0.2-4.2c-0.1-1-0.4-1.4-0.7-1.4c-0.3,0-0.5,0.5-0.7,1.5
	C160.8,362.9,160.7,364.3,160.7,366.3z M170.5,361.6c0,0.8-0.1,1.4-0.3,2c-0.1,0.6-0.4,1.2-0.7,1.7c-0.3,0.5-0.7,1.2-1.3,1.9
	c-0.9,1.3-1.4,2.5-1.5,3.6c0.7-0.1,1.5-0.3,2.2-0.4c0-0.6,0-1.3,0-2c0.5-0.1,1-0.2,1.5-0.3c0,0.8-0.1,1.5-0.1,2.2
	c0,0.8,0,1.5-0.1,2.2c-1.8,0.5-3.6,0.9-5.3,1.3c0-1.4,0.1-2.6,0.2-3.6c0.1-1,0.4-1.9,0.7-2.6c0.3-0.8,0.9-1.8,1.5-2.9
	c0.3-0.6,0.6-1.2,0.8-1.7c0.2-0.5,0.3-1,0.3-1.5s-0.1-0.9-0.2-1.2c-0.1-0.3-0.3-0.4-0.6-0.4c-0.3,0-0.6,0.3-0.8,0.8
	c-0.1,0.5-0.3,1.3-0.3,2.5c-0.5,0-1,0-1.5,0c0-1,0.1-1.9,0.2-2.6c0.1-0.8,0.3-1.3,0.5-1.9c0.5-1,1.1-1.5,2-1.5
	c0.8,0,1.4,0.4,1.9,1.1C170.3,359.3,170.5,360.3,170.5,361.6z M175.4,360.9c-0.1-0.3-0.1-0.6-0.1-1c-0.7,0.1-1.3,0.1-2,0.1
	c-0.1,1-0.1,2-0.1,3c0.4-0.4,0.9-0.7,1.3-0.8c0.5-0.1,1,0.1,1.4,0.4c0.4,0.3,0.7,0.8,0.9,1.4c0.2,0.6,0.3,1.3,0.3,2
	c0,0.9-0.1,1.7-0.3,2.5c-0.2,0.8-0.5,1.4-1,1.9c-0.4,0.5-0.9,0.9-1.5,1.1c-0.8,0.3-1.4,0.1-1.9-0.5c-0.5-0.6-0.8-1.6-0.9-2.9
	c0.5-0.3,1.1-0.5,1.6-0.7c0.1,1.3,0.5,1.9,1.1,1.8c0.3-0.1,0.6-0.4,0.8-0.8s0.3-1,0.3-1.7c0-1.5-0.3-2.2-1.1-2.1
	c-0.4,0.1-0.8,0.5-1.1,1.3c-0.4-0.3-0.9-0.7-1.3-1c0.1-1.2,0.1-2.5,0.1-3.7c0.1-1.2,0.1-2.5,0.1-3.7c1.5,0,3.1-0.1,4.7-0.1
	c0,1.1,0,2.1,0,3.2C176.2,360.8,175.8,360.8,175.4,360.9z"/>
<path d="M128.5,366.2c0,1.5-0.1,2.8-0.2,3.9c-0.1,1.1-0.3,2-0.5,2.8c-0.5,1.4-1.1,2.1-2.1,1.9c-0.9-0.2-1.6-1.1-2.1-2.6
	c-0.3-0.8-0.4-1.7-0.5-2.8c-0.1-1.1-0.2-2.3-0.2-3.7c0-1.4,0.1-2.6,0.2-3.6c0.1-1,0.3-1.9,0.5-2.6c0.5-1.5,1.1-2.2,2.1-2.2
	c0.9,0,1.6,0.8,2.1,2.3c0.2,0.7,0.4,1.8,0.5,2.8C128.4,363.4,128.5,364.7,128.5,366.2z"/>
<path fill="#FFFFFF" d="M124.8,365.8c0,2,0.1,3.4,0.2,4.4c0.1,0.9,0.4,1.5,0.7,1.6c0.3,0.1,0.5-0.4,0.7-1.3c0.1-0.9,0.2-2.4,0.2-4.4
	c0-2-0.1-3.4-0.2-4.5c-0.1-1-0.4-1.5-0.7-1.5c-0.3,0-0.5,0.5-0.7,1.4C124.9,362.5,124.8,363.9,124.8,365.8z"/>
</svg>
